PathFileType	4	(X/Y/Z)	./resultDataOpenSim/trcMotMarkerGrf/sub09/qtm-05-05.trc
DataRate	CameraRate	NumFrames	NumMarkers	Units	OrigDataRate	OrigDataStartFrame	OrigNumFrames
250.000000	250.000000	10	24	m	250.000000	66	521
Frame#	Time	L.Toe.Tip			R.Toe.Tip			L.Ankle.Lat			R.Ankle.Lat			L.Ankle.Med			R.Ankle.Med			L.Heel			R.Heel			L.Knee.Lat			R.Knee.Lat			L.Knee.Med			R.Knee.Med			L.Thigh.Upper			R.Thigh.Upper			L.ASIS			R.ASIS			V.Sacral			L.Acromium			R.Acromium			C7			L.Elbow			R.Elbow			L.Wrist.Lat			R.Wrist.Lat
		X1	Y1	Z1	X2	Y2	Z2	X3	Y3	Z3	X4	Y4	Z4	X5	Y5	Z5	X6	Y6	Z6	X7	Y7	Z7	X8	Y8	Z8	X9	Y9	Z9	X10	Y10	Z10	X11	Y11	Z11	X12	Y12	Z12	X13	Y13	Z13	X14	Y14	Z14	X15	Y15	Z15	X16	Y16	Z16	X17	Y17	Z17	X18	Y18	Z18	X19	Y19	Z19	X20	Y20	Z20	X21	Y21	Z21	X22	Y22	Z22	X23	Y23	Z23	X24	Y24	Z24

66	0.26	-1.4162943	0.087647309	-0.019645347	-0.66078559	0.040414941	0.14674406	-1.440454	0.24375872	-0.054691046	-0.80872125	0.053982706	0.17729705	-1.4183536	0.22327052	0.039589656	-0.79257466	0.094931687	0.089213835	-1.5018606	0.28739444	-0.0039238741	-0.87530232	0.030762404	0.12604681	-1.0667415	0.41729587	-0.083332278	-0.77357315	0.50719011	0.23483657	-1.0498826	0.3998598	0.040001013	-0.78287886	0.49365535	0.10889892	-1.0229123	0.82244869	-0.091387064	-0.99287122	0.8502378	0.28171332	-0.92956147	0.90753434	-0.037153016	-0.92001629	0.93396488	0.20229581	-1.0915474	0.97632144	0.088204885	-0.9149151	1.3767447	-0.062709793	-0.95340361	1.3737023	0.26395628	-0.99970107	1.4283625	0.099102794	-1.0231743	1.0166819	-0.14314168	-1.0956501	1.0355145	0.32211618	-0.78550589	0.88720615	-0.10436815	-0.99614375	0.78624286	0.34740787
67	0.264	-1.4046275	0.090888074	-0.020451026	-0.660804	0.040408299	0.1466419	-1.428781	0.24704098	-0.053950234	-0.80854955	0.053952076	0.17724437	-1.4055295	0.22614088	0.039685258	-0.79245387	0.094943437	0.089260195	-1.4900284	0.29049315	-0.0026414577	-0.87535555	0.030763986	0.12606726	-1.0540801	0.41735776	-0.082657191	-0.76899105	0.50670419	0.23453795	-1.0382184	0.40018186	0.040980418	-0.77999458	0.4933947	0.1091259	-1.016964	0.82289688	-0.090825737	-0.98720079	0.85163291	0.2822584	-0.92421556	0.90839834	-0.036714582	-0.91440791	0.93502746	0.2026651	-1.0860108	0.97746875	0.088740917	-0.90925689	1.3775402	-0.062399893	-0.94706568	1.3747096	0.26433062	-0.9937768	1.4294543	0.099535694	-1.0182476	1.0177742	-0.14241504	-1.0885912	1.0359039	0.32326908	-0.78248791	0.88531595	-0.10469444	-0.98546488	0.78748524	0.34748211
68	0.268	-1.3924723	0.09389653	-0.021129854	-0.66082913	0.040402607	0.14654062	-1.4168224	0.25003612	-0.053210968	-0.80841017	0.053908074	0.17719217	-1.3919721	0.22888601	0.039555899	-0.79234298	0.094948867	0.089303591	-1.4781467	0.29325478	-0.0014252137	-0.87542438	0.030765508	0.12607	-1.0414404	0.41760601	-0.081916242	-0.76460539	0.50612452	0.23433458	-1.0261253	0.40059427	0.041977909	-0.77722742	0.49309869	0.1093664	-1.0110621	0.82345306	-0.090303763	-0.98145255	0.85309682	0.28280469	-0.91891784	0.90937141	-0.036329417	-0.9086744	0.93615675	0.20299142	-1.0805875	0.97865185	0.089191322	-0.90360973	1.3783993	-0.062106456	-0.94069285	1.3757626	0.26466296	-0.98807578	1.4306675	0.099507086	-1.0133204	1.0189184	-0.14167951	-1.0815959	1.0363716	0.32438821	-0.77946007	0.88345817	-0.10499846	-0.97511624	0.78879915	0.34744808
69	0.272	-1.3799119	0.096654121	-0.021658535	-0.66085857	0.040393337	0.14644047	-1.4045897	0.25271406	-0.052453734	-0.80830561	0.053851519	0.17714662	-1.3784336	0.23134917	0.039583632	-0.79223573	0.094946104	0.089350105	-1.466187	0.29567825	-0.00034729198	-0.87550695	0.030769857	0.12605676	-1.0288421	0.41805651	-0.081087658	-0.76077124	0.50559119	0.23432069	-1.0136989	0.40107151	0.042988576	-0.77458181	0.49278492	0.10962013	-1.005187	0.82412433	-0.089812423	-0.97570937	0.85459421	0.28332601	-0.91363251	0.91045469	-0.035977739	-0.90270866	0.93735278	0.20330422	-1.0752501	0.97988538	0.089579518	-0.89800293	1.3793343	-0.061838778	-0.93432023	1.3768631	0.26496728	-0.98250016	1.4319577	0.099248444	-1.0084213	1.0201276	-0.14095682	-1.0746349	1.0369211	0.32547746	-0.77644944	0.88165064	-0.1053027	-0.96517778	0.79016286	0.3472983
70	0.276	-1.367008	0.09914773	-0.022029871	-0.66089484	0.040384123	0.14634472	-1.392104	0.25506186	-0.051683621	-0.80824198	0.053792942	0.17711211	-1.3652776	0.23348305	0.039944872	-0.79213121	0.094941803	0.089406364	-1.4540774	0.29774161	0.00055197567	-0.87559895	0.03077779	0.12603302	-1.0162894	0.41872214	-0.080179737	-0.75754436	0.50515028	0.23448636	-1.0013587	0.40163543	0.044025804	-0.77205732	0.49247074	0.10989392	-0.99933433	0.82492183	-0.089351229	-0.97009881	0.85609703	0.28379275	-0.90833569	0.91163934	-0.035638759	-0.89652701	0.93860506	0.20361547	-1.0699673	0.98118553	0.089936631	-0.89245919	1.3803528	-0.061603189	-0.92798608	1.3780225	0.26526179	-0.97691983	1.4332795	0.099078426	-1.0035647	1.021414	-0.14025927	-1.0676559	1.037542	0.32652194	-0.77350332	0.87991235	-0.10562732	-0.95546481	0.79160116	0.34707061
71	0.28	-1.3537934	0.10137101	-0.022249003	-0.66094223	0.040381761	0.14626347	-1.3794104	0.2570709	-0.050921708	-0.80822539	0.053744373	0.17709304	-1.3523753	0.23533714	0.040543336	-0.79203007	0.094944319	0.089476712	-1.4417657	0.2994357	0.0013073054	-0.87569542	0.030785118	0.12600386	-1.0037565	0.41959778	-0.079229672	-0.75475529	0.50478135	0.23477377	-0.98896323	0.4023255	0.04509204	-0.7696369	0.49217163	0.11019736	-0.99350977	0.82585905	-0.088918595	-0.9649149	0.85755487	0.28414671	-0.90303414	0.91291449	-0.035306779	-0.89039013	0.93987903	0.20390529	-1.064724	0.98254703	0.090278664	-0.88698744	1.3814495	-0.061398498	-0.92170279	1.3792497	0.26555441	-0.97125088	1.4346166	0.099206176	-0.99875157	1.0227807	-0.13957444	-1.0606205	1.0382219	0.32750364	-0.77065193	0.87825967	-0.10597884	-0.94579522	0.79315566	0.3468066
72	0.284	-1.3402754	0.103336	-0.022326749	-0.66100289	0.040389903	0.14620922	-1.3665643	0.25874802	-0.050174778	-0.80825686	0.053710638	0.17709227	-1.3395215	0.23695754	0.041236151	-0.7919338	0.094958034	0.089561247	-1.4293143	0.30080212	0.0020191927	-0.87579259	0.030785291	0.12597163	-0.99121897	0.42065722	-0.078275279	-0.75228728	0.50450243	0.23514931	-0.97629479	0.40318375	0.046190932	-0.76727693	0.4919022	0.11051389	-0.98771184	0.82694053	-0.088510284	-0.96055635	0.85888765	0.28431423	-0.89776375	0.91427084	-0.034989734	-0.88475761	0.94112298	0.20412164	-1.0595194	0.98395212	0.090609139	-0.88158725	1.3826162	-0.061218825	-0.91546534	1.3805489	0.26584146	-0.96549771	1.4359749	0.09961489	-0.99397665	1.0242199	-0.13886183	-1.053565	1.0389639	0.32844377	-0.76790421	0.87670229	-0.10635702	-0.93609048	0.79485792	0.34653169
73	0.288	-1.3264416	0.10507203	-0.022273924	-0.66107462	0.040407243	0.14619154	-1.3536089	0.26013064	-0.04943553	-0.80832936	0.05368564	0.17711013	-1.3266201	0.23835586	0.041967345	-0.79184449	0.094982768	0.08965863	-1.4168285	0.301884	0.0027618921	-0.87588597	0.03077725	0.12593693	-0.97873887	0.42186938	-0.077317711	-0.75018862	0.50438709	0.23562824	-0.96363847	0.40423944	0.04732392	-0.76491585	0.49167654	0.11080781	-0.98192764	0.82815993	-0.088124808	-0.95705883	0.86006181	0.28430158	-0.89257617	0.9157002	-0.034692592	-0.8799231	0.94230563	0.2042262	-1.0543497	0.98541096	0.090921344	-0.87625033	1.3838508	-0.061056387	-0.90926775	1.3819205	0.26611564	-0.95971744	1.4373631	0.10014366	-0.98923754	1.0257199	-0.13808111	-1.0465953	1.0397886	0.32940456	-0.76526188	0.87523923	-0.10675835	-0.92633721	0.79672553	0.3462533
74	0.292	-1.312274	0.10660818	-0.022099329	-0.66115232	0.040430606	0.14621447	-1.3405632	0.26126258	-0.048705469	-0.8084282	0.053659066	0.17714586	-1.3137047	0.23952064	0.042747099	-0.79176227	0.09501654	0.089771124	-1.4043194	0.30266388	0.0035292444	-0.87596872	0.030768477	0.12590218	-0.96640165	0.42322039	-0.076331803	-0.74851934	0.50446471	0.23623339	-0.95109438	0.40548631	0.048473985	-0.76252392	0.49150279	0.1110789	-0.97613941	0.82950626	-0.087759737	-0.95364638	0.86118721	0.28428419	-0.88750503	0.91719946	-0.034411387	-0.87559902	0.94345952	0.20426896	-1.0492083	0.98695482	0.091197674	-0.87096085	1.3851537	-0.060901573	-0.90310414	1.3833616	0.2663716	-0.95396518	1.4387923	0.10062351	-0.98454108	1.0272822	-0.137241	-1.0397416	1.0407019	0.33040577	-0.76272652	0.87386624	-0.10717813	-0.91654829	0.7987635	0.34596428
75	0.296	-1.2977694	0.10795927	-0.021810318	-0.66123299	0.040457898	0.1462756	-1.3274274	0.26215144	-0.047982684	-0.80853708	0.053628334	0.17719859	-1.3007799	0.2404535	0.043559191	-0.79168845	0.095058484	0.089905889	-1.391797	0.30311279	0.0043126467	-0.87603618	0.030768618	0.12587265	-0.95415258	0.42471998	-0.07531219	-0.74710645	0.50461775	0.23690288	-0.93842627	0.4069212	0.049631063	-0.76016559	0.49137704	0.11139373	-0.97033542	0.83096418	-0.087403878	-0.94929048	0.86244435	0.28448224	-0.88252264	0.9187711	-0.034136863	-0.87116491	0.94465174	0.20436326	-1.0440951	0.98857046	0.091441843	-0.86570718	1.3865251	-0.060746335	-0.89697479	1.3848664	0.26660823	-0.9482727	1.4402772	0.10093296	-0.97990069	1.0289214	-0.13640157	-1.0329126	1.0416789	0.33139833	-0.76029315	0.87258672	-0.10761434	-0.90675599	0.80095268	0.34565596
